<svg version="1.1" xmlns="http://www.w3.org/2000/svg" viewBox="0 0 186 186" xml:space="preserve" class="icon"><g><path class="st0" d="M92.7 165.4L28.4 101c-8.7-8.7-13.5-20.2-13.5-32.5S19.7 44.7 28.4 36c8.6-8.6 20.3-13 32.9-12.1 11.7.8 22.8 5.7 31.4 14.1 8.6-8.3 19.8-13.3 31.4-14.1 12.6-.8 24.3 3.5 32.9 12.1 8.7 8.7 13.5 20.2 13.5 32.5S165.7 92.3 157 101l-64.3 64.4zM58.3 36.8c-8 0-15.3 2.9-20.8 8.4-6.2 6.2-9.7 14.5-9.7 23.3s3.4 17.1 9.7 23.3L92.7 147l55.1-55.1c6.2-6.2 9.7-14.5 9.7-23.3s-3.4-17.1-9.7-23.3c-6-6-14.1-8.9-22.9-8.4-8.7.6-17.3 4.6-23.7 11l-8.5 8.5-8.5-8.5c-6.4-6.4-15.1-10.4-23.7-11-.7-.1-1.4-.1-2.2-.1z"/></g><g><path class="st0" d="M45.7 76.1c-3.6 0-6.5-2.9-6.5-6.5 0-12.5 10.2-22.7 22.7-22.7 3.6 0 6.5 2.9 6.5 6.5s-2.9 6.5-6.5 6.5c-5.4 0-9.7 4.4-9.7 9.7 0 3.6-2.9 6.5-6.5 6.5z"/></g></svg>